<mxfile host="app.diagrams.net" modified="2023-08-19T08:04:57.371Z" agent="Mozilla/5.0 (Windows NT 10.0; Win64; x64) AppleWebKit/537.36 (KHTML, like Gecko) Chrome/116.0.0.0 Safari/537.36" version="21.6.8" etag="XvXUoFotA2jAjS2dR5dc" type="github">
  <diagram name="第 1 页" id="0sNIeCyk4VETosC3RPXi">
    <mxGraphModel>
      <root>
        <mxCell id="0" />
        <mxCell id="1" parent="0" />
      </root>
    </mxGraphModel>
  </diagram>
</mxfile>
